<svg xmlns="http://www.w3.org/2000/svg" width="1300" height="582" viewBox="0 0 1300 582">
  <rect x="0" y="0" width="1300" height="582" fill="#0b1020" rx="14"/>
  <rect x="0" y="0" width="1300" height="34" fill="#141b2f" rx="14"/>
  <circle cx="18" cy="17" r="5" fill="#ff5f56"/>
  <circle cx="36" cy="17" r="5" fill="#ffbd2e"/>
  <circle cx="54" cy="17" r="5" fill="#27c93f"/>
  <text x="74" y="22" fill="#b9c6e8" font-family="Menlo, Monaco, Consolas, monospace" font-size="12">05 health</text>
  <g font-family="Menlo, Monaco, Consolas, monospace" font-size="14">
    <text x="20" y="54" fill="#d7e3ff">http://127.0.0.1:18080</text><text x="20" y="76" fill="#d7e3ff">{</text><text x="20" y="98" fill="#d7e3ff">  "path": "/health",</text><text x="20" y="120" fill="#d7e3ff">  "headers": {</text><text x="20" y="142" fill="#d7e3ff">    "host": "127.0.0.1:18080",</text><text x="20" y="164" fill="#d7e3ff">    "user-agent": "curl/8.4.0",</text><text x="20" y="186" fill="#d7e3ff">    "accept": "*/*"</text><text x="20" y="208" fill="#d7e3ff">  },</text><text x="20" y="230" fill="#d7e3ff">  "method": "GET",</text><text x="20" y="252" fill="#d7e3ff">  "body": "",</text><text x="20" y="274" fill="#d7e3ff">  "fresh": false,</text><text x="20" y="296" fill="#d7e3ff">  "hostname": "127.0.0.1",</text><text x="20" y="318" fill="#d7e3ff">  "ip": "::ffff:127.0.0.1",</text><text x="20" y="340" fill="#d7e3ff">  "ips": [],</text><text x="20" y="362" fill="#d7e3ff">  "protocol": "http",</text><text x="20" y="384" fill="#d7e3ff">  "query": {},</text><text x="20" y="406" fill="#d7e3ff">  "subdomains": [],</text><text x="20" y="428" fill="#d7e3ff">  "xhr": false,</text><text x="20" y="450" fill="#d7e3ff">  "os": {</text><text x="20" y="472" fill="#d7e3ff">    "hostname": "liquidity-app-65f68c7884-frznk"</text><text x="20" y="494" fill="#d7e3ff">  },</text><text x="20" y="516" fill="#d7e3ff">  "connection": {}</text><text x="20" y="538" fill="#d7e3ff">}</text>
  </g>
</svg>