<svg xmlns="http://www.w3.org/2000/svg" width="1300" height="1198" viewBox="0 0 1300 1198">
  <rect x="0" y="0" width="1300" height="1198" fill="#0b1020" rx="14"/>
  <rect x="0" y="0" width="1300" height="34" fill="#141b2f" rx="14"/>
  <circle cx="18" cy="17" r="5" fill="#ff5f56"/>
  <circle cx="36" cy="17" r="5" fill="#ffbd2e"/>
  <circle cx="54" cy="17" r="5" fill="#27c93f"/>
  <text x="74" y="22" fill="#b9c6e8" font-family="Menlo, Monaco, Consolas, monospace" font-size="12">02 describe app</text>
  <g font-family="Menlo, Monaco, Consolas, monospace" font-size="14">
    <text x="20" y="54" fill="#d7e3ff">Name:                   liquidity-app</text><text x="20" y="76" fill="#d7e3ff">Namespace:              finance-lab</text><text x="20" y="98" fill="#d7e3ff">CreationTimestamp:      Fri, 20 Mar 2026 20:47:06 +0300</text><text x="20" y="120" fill="#d7e3ff">Labels:                 app=liquidity-app</text><text x="20" y="142" fill="#d7e3ff">                        project=liquidity-app</text><text x="20" y="164" fill="#d7e3ff">Annotations:            deployment.kubernetes.io/revision: 1</text><text x="20" y="186" fill="#d7e3ff">Selector:               app=liquidity-app</text><text x="20" y="208" fill="#d7e3ff">Replicas:               2 desired | 2 updated | 2 total | 2 available | 0 unavailable</text><text x="20" y="230" fill="#d7e3ff">StrategyType:           RollingUpdate</text><text x="20" y="252" fill="#d7e3ff">MinReadySeconds:        0</text><text x="20" y="274" fill="#d7e3ff">RollingUpdateStrategy:  25% max unavailable, 25% max surge</text><text x="20" y="296" fill="#d7e3ff">Pod Template:</text><text x="20" y="318" fill="#d7e3ff">  Labels:  app=liquidity-app</text><text x="20" y="340" fill="#d7e3ff">           project=liquidity-app</text><text x="20" y="362" fill="#d7e3ff">  Init Containers:</text><text x="20" y="384" fill="#d7e3ff">   wait-for-db:</text><text x="20" y="406" fill="#d7e3ff">    Image:      busybox:1.36</text><text x="20" y="428" fill="#d7e3ff">    Port:       &lt;none&gt;</text><text x="20" y="450" fill="#d7e3ff">    Host Port:  &lt;none&gt;</text><text x="20" y="472" fill="#d7e3ff">    Command:</text><text x="20" y="494" fill="#d7e3ff">      sh</text><text x="20" y="516" fill="#d7e3ff">      -c</text><text x="20" y="538" fill="#d7e3ff">      until nc -z db-service 5432; do echo "waiting for db"; sleep 2; done</text><text x="20" y="560" fill="#d7e3ff">    Environment:  &lt;none&gt;</text><text x="20" y="582" fill="#d7e3ff">    Mounts:       &lt;none&gt;</text><text x="20" y="604" fill="#d7e3ff">  Containers:</text><text x="20" y="626" fill="#d7e3ff">   app:</text><text x="20" y="648" fill="#d7e3ff">    Image:      lr2-app:latest</text><text x="20" y="670" fill="#d7e3ff">    Port:       8080/TCP (http)</text><text x="20" y="692" fill="#d7e3ff">    Host Port:  0/TCP (http)</text><text x="20" y="714" fill="#d7e3ff">    Liveness:   http-get http://:8080/health delay=20s timeout=1s period=10s #success=1 #failure=3</text><text x="20" y="736" fill="#d7e3ff">    Readiness:  http-get http://:8080/health delay=10s timeout=1s period=5s #success=1 #failure=3</text><text x="20" y="758" fill="#d7e3ff">    Environment Variables from:</text><text x="20" y="780" fill="#d7e3ff">      liquidity-config  ConfigMap  Optional: false</text><text x="20" y="802" fill="#d7e3ff">      liquidity-secret  Secret     Optional: false</text><text x="20" y="824" fill="#d7e3ff">    Environment:        &lt;none&gt;</text><text x="20" y="846" fill="#d7e3ff">    Mounts:             &lt;none&gt;</text><text x="20" y="868" fill="#d7e3ff">  Volumes:              &lt;none&gt;</text><text x="20" y="890" fill="#d7e3ff">  Node-Selectors:       &lt;none&gt;</text><text x="20" y="912" fill="#d7e3ff">  Tolerations:          &lt;none&gt;</text><text x="20" y="934" fill="#d7e3ff">Conditions:</text><text x="20" y="956" fill="#d7e3ff">  Type           Status  Reason</text><text x="20" y="978" fill="#d7e3ff">  ----           ------  ------</text><text x="20" y="1000" fill="#d7e3ff">  Available      True    MinimumReplicasAvailable</text><text x="20" y="1022" fill="#d7e3ff">  Progressing    True    NewReplicaSetAvailable</text><text x="20" y="1044" fill="#d7e3ff">OldReplicaSets:  &lt;none&gt;</text><text x="20" y="1066" fill="#d7e3ff">NewReplicaSet:   liquidity-app-65f68c7884 (2/2 replicas created)</text><text x="20" y="1088" fill="#d7e3ff">Events:</text><text x="20" y="1110" fill="#d7e3ff">  Type    Reason             Age   From                   Message</text><text x="20" y="1132" fill="#d7e3ff">  ----    ------             ----  ----                   -------</text><text x="20" y="1154" fill="#d7e3ff">  Normal  ScalingReplicaSet  7m1s  deployment-controller  Scaled up replica set liquidity-app-65f68c7884 from 0 to 2</text>
  </g>
</svg>