<svg xmlns="http://www.w3.org/2000/svg" width="1240" height="560" viewBox="0 0 1240 560">
<rect x="0" y="0" width="1240" height="560" fill="#0b1020" rx="14"/>
<rect x="0" y="0" width="1240" height="34" fill="#141b2f" rx="14"/>
<circle cx="18" cy="17" r="5" fill="#ff5f56"/>
<circle cx="36" cy="17" r="5" fill="#ffbd2e"/>
<circle cx="54" cy="17" r="5" fill="#27c93f"/>
<text x="74" y="22" fill="#b9c6e8" font-family="Menlo, Monaco, Consolas, monospace" font-size="12">08_project_tree</text>
<g font-family="Menlo, Monaco, Consolas, monospace" font-size="14"><text x="20" y="54" fill="#d7e3ff">project tree</text><text x="20" y="76" fill="#d7e3ff">./.env</text><text x="20" y="98" fill="#d7e3ff">./.github/workflows/ci.yml</text><text x="20" y="120" fill="#d7e3ff">./.gitignore</text><text x="20" y="142" fill="#d7e3ff">./Jenkinsfile</text><text x="20" y="164" fill="#d7e3ff">./README.md</text><text x="20" y="186" fill="#d7e3ff">./app/.dockerignore</text><text x="20" y="208" fill="#d7e3ff">./app/Dockerfile</text><text x="20" y="230" fill="#d7e3ff">./app/loader.py</text><text x="20" y="252" fill="#d7e3ff">./app/main.py</text><text x="20" y="274" fill="#d7e3ff">./app/requirements.txt</text><text x="20" y="296" fill="#d7e3ff">./ci/run_local_pipeline.sh</text><text x="20" y="318" fill="#d7e3ff">./docker-compose.yml</text><text x="20" y="340" fill="#d7e3ff">./raw/01_pipeline_fail.txt</text><text x="20" y="362" fill="#d7e3ff">./raw/02_pipeline_success.txt</text><text x="20" y="384" fill="#d7e3ff">./raw/03_pipeline_success_short.txt</text><text x="20" y="406" fill="#d7e3ff">./raw/04_buildx_ls.txt</text><text x="20" y="428" fill="#d7e3ff">./raw/05_multiarch_artifact.txt</text><text x="20" y="450" fill="#d7e3ff">./raw/06_docker_images.txt</text><text x="20" y="472" fill="#d7e3ff">./raw/08_project_tree.txt</text><text x="20" y="494" fill="#d7e3ff">./raw/liquidity_multiarch_success.tar</text><text x="20" y="516" fill="#d7e3ff">./raw/smoke_health_success.txt</text></g>
</svg>