<svg xmlns="http://www.w3.org/2000/svg" width="1229" height="626" viewBox="0 0 1229 626"><rect x="0" y="0" width="1229" height="626" fill="#0b1020" rx="14"/><rect x="0" y="0" width="1229" height="34" fill="#141b2f" rx="14"/><circle cx="18" cy="17" r="5" fill="#ff5f56"/><circle cx="36" cy="17" r="5" fill="#ffbd2e"/><circle cx="54" cy="17" r="5" fill="#27c93f"/><text x="74" y="22" fill="#b9c6e8" font-family="Menlo, Monaco, Consolas, monospace" font-size="12">07_project_tree</text><g font-family="Menlo, Monaco, Consolas, monospace" font-size="14"><text x="20" y="54" fill="#d7e3ff">project tree</text><text x="20" y="76" fill="#d7e3ff">./.env</text><text x="20" y="98" fill="#d7e3ff">./.gitignore</text><text x="20" y="120" fill="#d7e3ff">./README.md</text><text x="20" y="142" fill="#d7e3ff">./app/.dockerignore</text><text x="20" y="164" fill="#d7e3ff">./app/Dockerfile</text><text x="20" y="186" fill="#d7e3ff">./app/loader.py</text><text x="20" y="208" fill="#d7e3ff">./app/main.py</text><text x="20" y="230" fill="#d7e3ff">./app/requirements.txt</text><text x="20" y="252" fill="#d7e3ff">./data/liquidity_metrics.csv</text><text x="20" y="274" fill="#d7e3ff">./docker-compose.yml</text><text x="20" y="296" fill="#d7e3ff">./generate_data.py</text><text x="20" y="318" fill="#d7e3ff">./raw/01_compose_ps.txt</text><text x="20" y="340" fill="#d7e3ff">./raw/02_docker_ps.txt</text><text x="20" y="362" fill="#d7e3ff">./raw/03_loader_logs.txt</text><text x="20" y="384" fill="#d7e3ff">./raw/04_app_logs.txt</text><text x="20" y="406" fill="#d7e3ff">./raw/05_api_checks.txt</text><text x="20" y="428" fill="#d7e3ff">./raw/06_db_count.txt</text><text x="20" y="450" fill="#d7e3ff">./raw/07_project_tree.txt</text><text x="20" y="472" fill="#d7e3ff">./screens/01_compose_ps.svg</text><text x="20" y="494" fill="#d7e3ff">./screens/02_docker_ps.svg</text><text x="20" y="516" fill="#d7e3ff">./screens/03_loader_logs.svg</text><text x="20" y="538" fill="#d7e3ff">./screens/04_app_logs.svg</text><text x="20" y="560" fill="#d7e3ff">./screens/05_api_checks.svg</text><text x="20" y="582" fill="#d7e3ff">./screens/06_db_count.svg</text></g></svg>